<svg xmlns="http://www.w3.org/2000/svg" version="1.1" xmlns:xlink="http://www.w3.org/1999/xlink" xmlns:svgjs="http://svgjs.com/svgjs" x="0" y="0" viewBox="0 0 512 512" style="enable-background:new 0 0 512 512" xml:space="preserve" class=""><g><linearGradient id="a" x1="432.334" x2="198.334" y1="502.645" y2="192.645" gradientUnits="userSpaceOnUse"><stop offset="0" stop-color="#c6d1ff"/><stop offset=".583" stop-color="#e6d5f4"/><stop offset=".997" stop-color="#ffd9ec"/></linearGradient><path fill="url(#a)" d="M501.873 153.583c-22.357-56.888-91.226-91.003-149.556-68.427-66.582 25.769-44.506 131.673-104.983 153.088-32.669 11.568-80.963-31.644-113.969-38.27-60.821-12.21-115.881 30.705-129.439 90.134-13.832 60.63 8.353 141.61 74.967 158.066 79.35 19.602 120.683-51.729 187.249-72.211 68.31-21.019 144.263 28.622 200.814-31.776 41.78-44.621 57.055-134.272 34.917-190.604z" data-original="url(#a)" class=""/><path fill="#2626bc" d="M476.847 178.593c0-39.498-32.019-71.517-71.517-71.517-30.6 0-56.699 19.225-66.91 46.25H79.813c-11.046 0-20 8.954-20 20v221.41c0 11.046 8.954 20 20 20h352.375c11.046 0 20-8.954 20-20v-162.14c15.098-13.113 24.659-32.435 24.659-54.003z" opacity=".1" data-original="#2626bc" class=""/><path fill="#9fb0fe" d="M432.188 389.736H79.812c-11.046 0-20-8.954-20-20v-221.41c0-11.046 8.954-20 20-20h352.375c11.046 0 20 8.954 20 20v221.41c.001 11.046-8.954 20-19.999 20z" data-original="#9fb0fe" class=""/><g fill="#8399fe"><path d="M452.19 148.331v84.5c-12.55 10.89-28.93 17.49-46.86 17.49-39.5 0-71.52-32.02-71.52-71.51 0-19.7 7.97-37.55 20.86-50.48h77.52c11.04 0 20 8.95 20 20z" fill="#8399fe" data-original="#8399fe" class=""/><path d="M452.19 148.331v25.21l-177.91 136.67c-5.22 4.01-11.71 6.21-18.28 6.21s-13.06-2.2-18.28-6.21L59.81 173.541v-25.21c0-11.05 8.96-20 20-20h352.38c11.04 0 20 8.95 20 20z" fill="#8399fe" data-original="#8399fe" class=""/><path d="m262.092 223.711 190.096 146.025c0 11.046-8.954 20-20 20H79.812c-11.046 0-20-8.954-20-20l190.096-146.025a10 10 0 0 1 12.184 0z" fill="#8399fe" data-original="#8399fe" class=""/></g><path fill="#6583fe" d="m324.49 271.641-50.21 38.57c-5.22 4.01-11.71 6.21-18.28 6.21s-13.06-2.2-18.28-6.21l-50.21-38.57 62.4-47.93a9.993 9.993 0 0 1 12.18 0z" data-original="#6583fe" class=""/><path fill="#b7c5ff" d="M249.908 294.352 59.812 148.326c0-11.046 8.954-20 20-20h352.375c11.046 0 20 8.954 20 20L262.092 294.352a10.002 10.002 0 0 1-12.184 0z" data-original="#b7c5ff"/><path fill="#02ffb3" d="M370.948 363.125h-32.134a5 5 0 0 1-5-5v-22.154a5 5 0 0 1 5-5h32.134a5 5 0 0 1 5 5v22.154a5 5 0 0 1-5 5z" data-original="#02ffb3"/><path fill="#ffffff" d="M311.871 342.743h-27.833a5 5 0 1 1 0-10h27.833a5 5 0 1 1 0 10zM311.871 363.125h-97.833a5 5 0 1 1 0-10h97.833a5 5 0 1 1 0 10z" data-original="#ffffff" class=""/><circle cx="405.33" cy="153.593" r="71.517" fill="#ff5ba8" data-original="#ff5ba8" class=""/><path fill="#2626bc" d="M405.33 230.11c42.191 0 76.517-34.325 76.517-76.517s-34.325-76.517-76.517-76.517-76.517 34.325-76.517 76.517c0 24.544 11.629 46.41 29.653 60.421l-99.42 76.372a5.004 5.004 0 0 1-6.092 0L64.992 146c1.121-7.17 7.341-12.674 14.82-12.674h229.366a5 5 0 1 0 0-10H79.813c-13.785 0-25 11.215-25 25v221.41c0 13.785 11.215 25 25 25h352.375c13.785 0 25-11.215 25-25v-132.14a5 5 0 1 0-10 0V359.59L316.28 259.031l50.94-39.13a76.017 76.017 0 0 0 38.11 10.209zm-209.61 28.921L64.813 359.59V158.472zm251.27 113.018c-1.118 7.174-7.32 12.687-14.803 12.687H79.813c-7.483 0-13.685-5.513-14.803-12.687l138.919-106.713 42.934 32.98c2.69 2.066 5.914 3.1 9.138 3.1s6.447-1.033 9.138-3.1l42.934-32.981zM338.813 153.593c0-36.677 29.839-66.517 66.517-66.517s66.517 29.839 66.517 66.517-29.839 66.517-66.517 66.517-66.517-29.84-66.517-66.517z" data-original="#2626bc" class=""/><path fill="#ffffff" d="m374.114 129.204 10.206 24.389-10.206 24.389c-1.733 4.142 2.448 8.292 6.576 6.528l61.619-26.319c4.048-1.729 4.048-7.467 0-9.196l-61.619-26.319c-4.128-1.764-8.309 2.386-6.576 6.528z" data-original="#ffffff" class=""/><path fill="#ffdbed" d="m407.601 158.261-30.725 13.13 7.442-17.8-7.451-17.8 30.734 13.13c3.833 1.64 3.833 7.71 0 9.34z" data-original="#ffdbed"/><path fill="#00eca2" d="M330.828 81.671a14.45 14.45 0 0 1-10.253-4.24c-5.654-5.654-5.654-14.853 0-20.506 5.651-5.652 14.852-5.654 20.505 0 5.654 5.654 5.654 14.853 0 20.506a14.45 14.45 0 0 1-10.252 4.24zm0-18.991a4.487 4.487 0 0 0-3.183 1.316 4.506 4.506 0 0 0 0 6.364 4.505 4.505 0 0 0 6.364 0 4.506 4.506 0 0 0 0-6.364 4.487 4.487 0 0 0-3.181-1.316zM218.538 459.315a14.457 14.457 0 0 1-10.253-4.24c-5.654-5.654-5.654-14.853 0-20.506 5.652-5.653 14.854-5.653 20.506 0 5.654 5.654 5.654 14.853 0 20.506a14.453 14.453 0 0 1-10.253 4.24zm0-18.991a4.487 4.487 0 0 0-3.183 1.316 4.506 4.506 0 0 0 0 6.364 4.506 4.506 0 0 0 6.365 0 4.506 4.506 0 0 0 0-6.364 4.487 4.487 0 0 0-3.182-1.316z" data-original="#00eca2"/><path fill="#ff7eb8" d="M294.78 94.547a4.983 4.983 0 0 1-3.535-1.464l-5.965-5.964-5.965 5.964a5 5 0 0 1-7.07-7.071l9.5-9.5a5 5 0 0 1 7.07 0l9.5 9.5a5 5 0 0 1-3.535 8.535zM439.746 440.322a4.983 4.983 0 0 1-3.535-1.464l-5.965-5.964-5.965 5.964a5 5 0 0 1-7.07-7.071l9.5-9.5a5 5 0 0 1 7.07 0l9.5 9.5a5 5 0 0 1-3.535 8.535z" data-original="#ff7eb8"/><path fill="#6583fe" d="M178.884 445.072a4.983 4.983 0 0 1-3.535-1.464l-5.965-5.964-5.965 5.964a5 5 0 0 1-7.07-7.071l9.5-9.5a5 5 0 0 1 7.07 0l9.5 9.5a5 5 0 0 1-3.535 8.535z" data-original="#6583fe" class=""/></g></svg>